<svg xmlns="http://www.w3.org/2000/svg" id="Layer_1" viewBox="0 737 1388.5 310.92"><defs><style>.cls-1{fill:#fff;}.cls-2{fill:#314049;}</style></defs><path class="cls-2" d="m557.67,977.94l.4,1.5-1.81,1.2c-1.4,1-2.21,2.21-2.21,3.61,0,1.2.4,2.51,1.1,4.71l7.72,24.27,7.02-19.15-2.31-6.22c-1.4-3.91-2.91-6.42-5.21-8.42l.4-1.5c9.33.6,17.75.6,27.08,0l.4,1.5-2.11,1.3c-1.4.9-2.01,1.81-2.01,3.31,0,1.2.4,2.61,1.1,4.71l8.02,24.47,6.42-16.95c.8-2.21,1.1-3.81,1.1-5.72,0-3.71-2.21-7.22-6.92-11.13l.4-1.5c6.72.5,13.44.5,20.16,0l.4,1.5c-4.41,4.01-7.12,8.12-10.13,15.94l-13.44,35.1c-3.31-.2-6.72-.2-10.03,0l-11.13-30.19-11.03,30.19c-3.41-.2-7.02-.2-10.43,0l-16.15-42.22c-2.11-5.42-3.21-6.82-6.62-8.82l.4-1.5c9.93.6,19.45.6,29.38,0Zm84.14,54.15c-17.25,0-28.18-11.03-28.18-27.78s11.63-27.78,28.48-27.78c15.64,0,26.47,9.13,28.08,24.27h-36.2c.6,12.54,6.52,17.85,17.05,17.85,6.22,0,12.13-2.01,16.75-5.52l1.5,1.1c-4.31,11.03-14.64,17.85-27.48,17.85Zm-7.92-35.2h17.15c-.8-12.64-4.21-16.65-8.82-16.65-5.11,0-8.12,4.91-8.32,16.65h0Zm63.78-18.95l.4,1.5-1.81,1.2c-1.4,1-2.21,2.21-2.21,3.61,0,1.2.4,2.51,1.1,4.71l7.72,24.27,7.02-19.15-2.31-6.22c-1.4-3.91-2.91-6.42-5.21-8.42l.4-1.5c9.33.6,17.75.6,27.08,0l.4,1.5-2.11,1.3c-1.4.9-2.01,1.81-2.01,3.31,0,1.2.4,2.61,1.1,4.71l8.02,24.47,6.42-16.95c.8-2.21,1.1-3.81,1.1-5.72,0-3.71-2.21-7.22-6.92-11.13l.4-1.5c6.72.5,13.44.5,20.16,0l.4,1.5c-4.41,4.01-7.12,8.12-10.13,15.94l-13.44,35.1c-3.31-.2-6.72-.2-10.03,0l-11.13-30.19-11.03,30.19c-3.41-.2-7.02-.2-10.43,0l-16.15-42.22c-2.11-5.42-3.21-6.82-6.62-8.82l.4-1.5c9.93.6,19.45.6,29.38,0h0Zm86.04-1.4c17.45,0,30.08,11.03,30.08,27.78s-12.84,27.78-30.29,27.78-30.08-11.03-30.08-27.78,12.84-27.78,30.29-27.78Zm-9.33,25.77c0,16.85,3.01,25.87,9.73,25.87,5.42,0,8.72-4.41,8.72-21.86s-3.01-25.87-9.73-25.87c-5.42,0-8.72,4.41-8.72,21.86h0Zm40.51,28.28l-.4-1.5,3.91-2.11c2.81-1.5,3.51-2.81,3.51-6.22v-28.98c0-4.41-.5-5.52-3.51-7.02l-3.71-1.81v-1.5l5.11-.7c7.02-1,14.24-2.51,19.86-4.01l.5.4v13.74c2.51-9.83,8.12-14.44,14.74-14.44,5.82,0,9.63,3.71,9.63,8.72s-3.51,8.32-8.22,8.32c-4.31,0-6.52-2.21-9.83-2.21-3.61,0-6.32,2.01-6.32,9.63v19.96c0,3.41.7,4.71,3.61,6.12l4.21,2.11-.4,1.5c-10.83-.6-21.86-.6-32.69,0h0Zm73.31-27.68l12.94-11.03c2.61-2.31,3.61-3.61,3.61-5.21s-.9-2.81-3.91-4.91l-3.41-2.31.4-1.5c9.23.6,19.05.6,28.28,0l.4,1.5c-5.72,2.61-9.83,5.11-15.04,9.43l-7.72,6.42,20.16,28.08c2.01,2.71,3.91,4.21,6.92,5.72l-.4,1.5c-9.83-.6-20.96-.6-30.79,0l-.4-1.5c3.81-1.5,4.71-2.31,4.71-3.61,0-.9-.4-1.6-1.4-3.11l-11.63-16.45-2.91,2.41v12.54c0,3.41.7,4.71,3.61,6.52l2.81,1.7-.4,1.5c-9.83-.6-21.06-.6-30.89,0l-.4-1.5,3.91-2.11c2.81-1.5,3.51-2.81,3.51-6.22v-54.15c0-4.41-.5-5.52-3.51-7.02l-3.71-1.81v-1.5l5.11-.7c7.02-1,14.14-2.51,19.66-4.01l.5.4v50.94h0Z"></path><path class="cls-1" d="m76.89,0H30.94C12.27,0,2.22,10.05,2.22,28.71v90.26c0,18.66,10.05,28.71,28.72,28.71h45.95c18.67,0,28.72-10.06,28.72-28.71v-20.73h-24.62v19.28c0,4.93-2.67,7.6-7.79,7.6h-38.77c-4.92,0-7.59-2.67-7.59-7.6V30.15c0-4.93,2.67-7.59,7.59-7.59h38.77c5.12,0,7.79,2.66,7.79,7.59v19.28h24.62v-20.72c0-18.67-10.05-28.71-28.72-28.71Z"></path><path class="cls-1" d="m211.06,0h-48.61c-18.67,0-28.72,10.05-28.72,28.71v90.26c0,18.66,10.05,28.71,28.72,28.71h48.61c18.66,0,28.72-10.06,28.72-28.71V28.71c0-18.67-10.06-28.71-28.72-28.71Zm4.1,117.52c0,4.93-2.67,7.6-7.79,7.6h-41.44c-4.92,0-7.59-2.67-7.59-7.6V30.15c0-4.93,2.67-7.59,7.59-7.59h41.44c5.12,0,7.79,2.66,7.79,7.59v87.38Z"></path><polygon class="cls-1" points="455.99 93.33 414.56 0 409.42 0 386.87 0 381.74 0 340.3 93.33 298.87 0 271.17 0 271.17 147.68 294.35 147.68 294.35 41.84 330.45 125.94 349.33 125.94 385.43 41.84 385.43 147.68 386.87 147.68 409.42 147.68 410.04 147.68 410.04 41.84 446.15 125.94 465.02 125.94 501.12 41.84 501.12 147.68 525.12 147.68 525.12 0 497.43 0 455.99 93.33"></polygon><path class="cls-1" d="m633.84,0h-48.61c-18.67,0-28.72,10.05-28.72,28.71v90.26c0,18.66,10.05,28.71,28.72,28.71h48.61c18.67,0,28.72-10.06,28.72-28.71V28.71c0-18.67-10.05-28.71-28.72-28.71Zm4.1,117.52c0,4.93-2.67,7.6-7.79,7.6h-41.44c-4.92,0-7.59-2.67-7.59-7.6V30.15c0-4.93,2.67-7.59,7.59-7.59h41.44c5.12,0,7.79,2.66,7.79,7.59v87.38Z"></path><polygon class="cls-1" points="779.76 106.45 717.61 0 691.76 0 691.76 147.68 714.73 147.68 714.73 38.35 778.73 147.68 802.94 147.68 802.94 0 779.76 0 779.76 106.45"></polygon><path class="cls-1" d="m963.08,0h-75.28v147.68h75.28c18.67,0,28.72-10.06,28.72-28.71V28.71c0-18.67-10.05-28.71-28.72-28.71Zm4.11,117.52c0,4.93-2.67,7.6-7.59,7.6h-47.18V22.56h47.18c4.93,0,7.59,2.66,7.59,7.59v87.38Z"></path><polygon class="cls-1" points="1023.59 147.68 1118.15 147.68 1118.15 125.12 1048.21 125.12 1048.21 83.27 1105.84 83.27 1105.84 61.12 1048.21 61.12 1048.21 22.56 1118.15 22.56 1118.15 0 1023.59 0 1023.59 147.68"></polygon><path class="cls-1" d="m1215.29,65.64l-38.15-8.42c-6.97-1.64-9.64-3.69-9.64-10.25v-17.23c0-5.13,2.66-7.79,7.79-7.79h35.49c4.92,0,7.59,2.66,7.59,7.79v14.56h24.2v-15.58c0-18.67-10.05-28.71-28.71-28.71h-42.26c-18.67,0-28.72,10.05-28.72,28.71v21.74c0,19.49,12.31,25.64,29.54,29.54l38.15,8.61c6.97,1.64,9.64,3.49,9.64,10.06v19.27c0,5.13-2.67,7.8-7.59,7.8h-38.35c-4.93,0-7.59-2.67-7.59-7.8v-16.2h-24.2v17.23c0,18.66,10.05,28.71,28.72,28.71h44.92c18.67,0,28.72-10.06,28.72-28.71v-23.8c0-19.49-12.1-25.64-29.54-29.53Z"></path><polygon class="cls-1" points="1331.1 72.19 1383.82 0 1355.71 0 1311 61.12 1297.26 61.12 1297.26 0 1272.64 0 1272.64 147.68 1297.26 147.68 1297.26 83.27 1311 83.27 1356.95 147.68 1386.07 147.68 1331.1 72.19"></polygon><path class="cls-1" d="m480.2,253.74l12.26-1.82c2.84-.41,3.75-1.82,3.75-3.55,0-3.55-2.74-6.49-8.41-6.49s-9.12,3.75-9.53,8.11l-11.96-2.53c.81-7.8,8.01-16.42,21.38-16.42,15.81,0,21.69,8.92,21.69,18.95v24.52c0,2.63.3,6.18.61,7.9h-12.36c-.3-1.32-.51-4.05-.51-5.98-2.53,3.95-7.3,7.4-14.69,7.4-10.64,0-17.13-7.19-17.13-15,0-8.92,6.59-13.88,14.9-15.1Zm16.01,8.51v-2.23l-11.25,1.72c-3.45.51-6.18,2.43-6.18,6.28,0,2.94,2.13,5.78,6.49,5.78,5.67,0,10.94-2.74,10.94-11.55Z"></path><path class="cls-1" d="m970.62,256.83c0,9.02,5.88,14.09,12.77,14.09s10.34-4.56,11.45-8.41l11.86,3.95c-2.23,8.31-10.03,16.82-23.31,16.82-14.69,0-26.25-11.15-26.25-26.45s11.35-26.45,25.84-26.45c13.58,0,21.28,8.41,23.41,16.82l-12.06,4.05c-1.22-4.15-4.36-8.41-11.04-8.41s-12.67,4.97-12.67,13.98Z"></path><path class="cls-1" d="m1064.65,256.83c0,15.3-11.25,26.45-26.14,26.45s-26.14-11.15-26.14-26.45,11.25-26.45,26.14-26.45,26.14,11.05,26.14,26.45Zm-13.48,0c0-9.42-6.08-14.19-12.67-14.19s-12.67,4.76-12.67,14.19,6.08,14.19,12.67,14.19,12.67-4.76,12.67-14.19Z"></path><path class="cls-1" d="m1075.29,281.76v-49.86h12.87v6.08c2.74-4.86,9.12-7.5,14.59-7.5,6.79,0,12.26,2.94,14.79,8.31,3.95-6.08,9.22-8.31,15.81-8.31,9.22,0,18.04,5.57,18.04,18.95v32.33h-13.07v-29.59c0-5.37-2.63-9.42-8.82-9.42-5.78,0-9.22,4.46-9.22,9.83v29.18h-13.38v-29.59c0-5.37-2.74-9.42-8.82-9.42s-9.32,4.36-9.32,9.83v29.18h-13.48Z"></path><path class="cls-1" d="m1165.07,301.02v-69.11h13.07v6.08c2.23-3.85,7.8-7.19,15.3-7.19,14.59,0,23,11.15,23,25.94s-9.42,26.25-23.51,26.25c-6.89,0-11.96-2.74-14.39-6.08v24.12h-13.48Zm25.74-58.17c-6.89,0-12.46,5.17-12.46,13.98s5.57,14.09,12.46,14.09,12.36-5.17,12.36-14.09-5.47-13.98-12.36-13.98Z"></path><path class="cls-1" d="m1238.94,253.08l12.26-1.82c2.84-.41,3.75-1.82,3.75-3.55,0-3.55-2.74-6.49-8.41-6.49s-9.12,3.75-9.53,8.11l-11.96-2.53c.81-7.8,8.01-16.42,21.38-16.42,15.81,0,21.68,8.92,21.68,18.95v24.52c0,2.63.3,6.18.61,7.9h-12.36c-.3-1.32-.51-4.05-.51-5.98-2.53,3.95-7.3,7.4-14.69,7.4-10.64,0-17.13-7.19-17.13-15,0-8.92,6.59-13.88,14.9-15.1Zm16.01,8.51v-2.23l-11.25,1.72c-3.45.51-6.18,2.43-6.18,6.28,0,2.94,2.13,5.78,6.49,5.78,5.67,0,10.94-2.74,10.94-11.55Z"></path><path class="cls-1" d="m1295.18,281.76h-13.48v-49.86h13.07v6.18c3.04-5.17,9.02-7.5,14.39-7.5,12.36,0,18.04,8.82,18.04,19.76v31.41h-13.48v-29.08c0-5.57-2.74-9.93-9.22-9.93-5.88,0-9.32,4.56-9.32,10.34v28.68Z"></path><path class="cls-1" d="m1342.9,301.42l11.75-25.94-21.18-43.57h15.1l13.28,29.18,12.26-29.18h14.39l-31.31,69.51h-14.29Z"></path><path class="cls-1" d="m566.22,231.03l.4,1.48-1.78,1.19c-1.38.99-2.17,2.17-2.17,3.56,0,1.19.4,2.47,1.09,4.64l7.61,23.91,6.92-18.87-2.27-6.13c-1.38-3.85-2.87-6.32-5.14-8.3l.4-1.48c9.19.59,17.49.59,26.68,0l.4,1.48-2.08,1.28c-1.38.89-1.98,1.78-1.98,3.26,0,1.19.4,2.57,1.09,4.64l7.91,24.11,6.32-16.7c.79-2.17,1.09-3.76,1.09-5.63,0-3.66-2.17-7.12-6.82-10.97l.4-1.48c6.62.49,13.24.49,19.86,0l.4,1.48c-4.35,3.95-7.02,8-9.98,15.71l-13.24,34.59c-3.26-.2-6.62-.2-9.88,0l-10.97-29.75-10.87,29.75c-3.36-.2-6.92-.2-10.28,0l-15.91-41.6c-2.08-5.34-3.16-6.72-6.52-8.7l.4-1.48c9.78.59,19.17.59,28.95,0Zm82.91,53.36c-17,0-27.77-10.87-27.77-27.37s11.46-27.37,28.07-27.37c15.42,0,26.09,8.99,27.67,23.91h-35.67c.59,12.35,6.42,17.59,16.8,17.59,6.13,0,11.96-1.98,16.5-5.44l1.48,1.09c-4.25,10.87-14.43,17.59-27.08,17.59Zm-7.81-34.69h16.9c-.79-12.45-4.15-16.4-8.7-16.4-5.04,0-8,4.84-8.2,16.4h0Zm62.85-18.68l.4,1.48-1.78,1.19c-1.38.99-2.17,2.17-2.17,3.56,0,1.19.4,2.47,1.09,4.64l7.61,23.91,6.92-18.87-2.27-6.13c-1.38-3.85-2.87-6.32-5.14-8.3l.4-1.48c9.19.59,17.49.59,26.68,0l.4,1.48-2.08,1.28c-1.38.89-1.98,1.78-1.98,3.26,0,1.19.4,2.57,1.09,4.64l7.91,24.11,6.32-16.7c.79-2.17,1.09-3.76,1.09-5.63,0-3.66-2.17-7.12-6.82-10.97l.4-1.48c6.62.49,13.24.49,19.86,0l.4,1.48c-4.35,3.95-7.02,8-9.98,15.71l-13.24,34.59c-3.26-.2-6.62-.2-9.88,0l-10.97-29.75-10.87,29.75c-3.36-.2-6.92-.2-10.28,0l-15.91-41.6c-2.08-5.34-3.16-6.72-6.52-8.7l.4-1.48c9.78.59,19.17.59,28.95,0h0Zm84.79-1.38c17.19,0,29.65,10.87,29.65,27.37s-12.65,27.37-29.84,27.37-29.65-10.87-29.65-27.37,12.65-27.37,29.84-27.37Zm-9.19,25.4c0,16.6,2.96,25.5,9.59,25.5,5.34,0,8.6-4.35,8.6-21.54s-2.96-25.5-9.59-25.5c-5.34,0-8.6,4.35-8.6,21.54h0Zm39.92,27.87l-.4-1.48,3.85-2.08c2.77-1.48,3.46-2.77,3.46-6.13v-28.56c0-4.35-.49-5.44-3.46-6.92l-3.66-1.78v-1.48l5.04-.69c6.92-.99,14.03-2.47,19.57-3.95l.49.4v13.54c2.47-9.68,8-14.23,14.53-14.23,5.73,0,9.49,3.66,9.49,8.6s-3.46,8.2-8.1,8.2c-4.25,0-6.42-2.17-9.68-2.17-3.56,0-6.23,1.98-6.23,9.49v19.67c0,3.36.69,4.64,3.56,6.03l4.15,2.08-.4,1.48c-10.67-.59-21.54-.59-32.22,0h0Zm72.24-27.27l12.75-10.87c2.57-2.27,3.56-3.56,3.56-5.14s-.89-2.77-3.85-4.84l-3.36-2.27.4-1.48c9.09.59,18.78.59,27.87,0l.4,1.48c-5.63,2.57-9.68,5.04-14.82,9.29l-7.61,6.32,19.86,27.67c1.98,2.67,3.85,4.15,6.82,5.63l-.4,1.48c-9.68-.59-20.65-.59-30.34,0l-.4-1.48c3.76-1.48,4.64-2.27,4.64-3.56,0-.89-.4-1.58-1.38-3.06l-11.46-16.21-2.87,2.37v12.35c0,3.36.69,4.64,3.56,6.42l2.77,1.68-.4,1.48c-9.68-.59-20.75-.59-30.44,0l-.4-1.48,3.85-2.08c2.77-1.48,3.46-2.77,3.46-6.13v-53.36c0-4.35-.49-5.44-3.46-6.92l-3.66-1.78v-1.48l5.04-.69c6.92-.99,13.93-2.47,19.37-3.95l.49.4v50.2h0Z"></path><path class="cls-2" d="m74.46,747.32H28.64c-18.62,0-28.64,10.02-28.64,28.63v90.01c0,18.61,10.02,28.63,28.64,28.63h45.82c18.62,0,28.64-10.03,28.64-28.63v-20.67h-24.55v19.23c0,4.91-2.66,7.58-7.77,7.58h-38.66c-4.91,0-7.57-2.67-7.57-7.58v-87.14c0-4.91,2.66-7.57,7.57-7.57h38.66c5.11,0,7.77,2.65,7.77,7.57v19.23h24.55v-20.66c0-18.62-10.02-28.63-28.64-28.63Z"></path><path class="cls-2" d="m208.27,747.32h-48.48c-18.62,0-28.64,10.02-28.64,28.63v90.01c0,18.61,10.02,28.63,28.64,28.63h48.48c18.61,0,28.64-10.03,28.64-28.63v-90.01c0-18.62-10.03-28.63-28.64-28.63Zm4.09,117.2c0,4.91-2.66,7.58-7.77,7.58h-41.32c-4.91,0-7.57-2.67-7.57-7.58v-87.14c0-4.91,2.66-7.57,7.57-7.57h41.32c5.11,0,7.77,2.65,7.77,7.57v87.14Z"></path><polygon class="cls-2" points="452.53 840.39 411.22 747.32 406.09 747.32 383.6 747.32 378.48 747.32 337.16 840.39 295.84 747.32 268.22 747.32 268.22 894.6 291.34 894.6 291.34 789.05 327.34 872.92 346.16 872.92 382.16 789.05 382.16 894.6 383.6 894.6 406.09 894.6 406.71 894.6 406.71 789.05 442.72 872.92 461.54 872.92 497.54 789.05 497.54 894.6 521.47 894.6 521.47 747.32 493.86 747.32 452.53 840.39"></polygon><path class="cls-2" d="m629.9,747.32h-48.48c-18.62,0-28.64,10.02-28.64,28.63v90.01c0,18.61,10.02,28.63,28.64,28.63h48.48c18.62,0,28.64-10.03,28.64-28.63v-90.01c0-18.62-10.02-28.63-28.64-28.63Zm4.09,117.2c0,4.91-2.66,7.58-7.77,7.58h-41.32c-4.91,0-7.57-2.67-7.57-7.58v-87.14c0-4.91,2.66-7.57,7.57-7.57h41.32c5.11,0,7.77,2.65,7.77,7.57v87.14Z"></path><polygon class="cls-2" points="775.42 853.49 713.44 747.32 687.66 747.32 687.66 894.6 710.57 894.6 710.57 785.56 774.4 894.6 798.54 894.6 798.54 747.32 775.42 747.32 775.42 853.49"></polygon><path class="cls-2" d="m958.25,747.32h-75.07v147.28h75.07c18.62,0,28.64-10.03,28.64-28.63v-90.01c0-18.62-10.02-28.63-28.64-28.63Zm4.1,117.2c0,4.91-2.66,7.58-7.57,7.58h-47.05v-102.28h47.05c4.91,0,7.57,2.65,7.57,7.57v87.14Z"></path><polygon class="cls-2" points="1018.59 894.6 1112.89 894.6 1112.89 872.1 1043.14 872.1 1043.14 830.37 1100.62 830.37 1100.62 808.28 1043.14 808.28 1043.14 769.82 1112.89 769.82 1112.89 747.32 1018.59 747.32 1018.59 894.6"></polygon><path class="cls-2" d="m1209.77,812.78l-38.05-8.39c-6.95-1.63-9.61-3.68-9.61-10.22v-17.19c0-5.12,2.65-7.77,7.77-7.77h35.39c4.91,0,7.57,2.65,7.57,7.77v14.52h24.14v-15.54c0-18.62-10.02-28.63-28.63-28.63h-42.14c-18.62,0-28.64,10.02-28.64,28.63v21.68c0,19.43,12.28,25.57,29.46,29.46l38.05,8.59c6.95,1.63,9.61,3.48,9.61,10.03v19.22c0,5.12-2.66,7.78-7.57,7.78h-38.25c-4.91,0-7.57-2.67-7.57-7.78v-16.16h-24.14v17.19c0,18.61,10.02,28.63,28.64,28.63h44.8c18.62,0,28.64-10.03,28.64-28.63v-23.73c0-19.43-12.07-25.57-29.46-29.45Z"></path><polygon class="cls-2" points="1325.27 819.32 1377.84 747.32 1349.81 747.32 1305.22 808.28 1291.52 808.28 1291.52 747.32 1266.97 747.32 1266.97 894.6 1291.52 894.6 1291.52 830.37 1305.22 830.37 1351.04 894.6 1380.09 894.6 1325.27 819.32"></polygon><path class="cls-2" d="m476.68,1000.37l12.23-1.82c2.83-.4,3.74-1.82,3.74-3.54,0-3.54-2.73-6.47-8.39-6.47s-9.1,3.74-9.5,8.08l-11.93-2.53c.81-7.78,7.98-16.37,21.32-16.37,15.77,0,21.63,8.89,21.63,18.9v24.46c0,2.63.3,6.17.61,7.88h-12.33c-.3-1.31-.51-4.04-.51-5.96-2.53,3.94-7.28,7.38-14.65,7.38-10.61,0-17.08-7.18-17.08-14.96,0-8.89,6.57-13.85,14.86-15.06Zm15.97,8.49v-2.22l-11.22,1.72c-3.44.5-6.16,2.43-6.16,6.27,0,2.93,2.12,5.76,6.47,5.76,5.66,0,10.91-2.73,10.91-11.52Z"></path><path class="cls-2" d="m965.76,1003.46c0,8.99,5.86,14.05,12.73,14.05s10.31-4.55,11.42-8.39l11.82,3.94c-2.22,8.29-10.01,16.78-23.24,16.78-14.65,0-26.17-11.12-26.17-26.38s11.32-26.38,25.77-26.38c13.54,0,21.22,8.39,23.34,16.78l-12.03,4.04c-1.21-4.14-4.35-8.39-11.02-8.39s-12.63,4.95-12.63,13.95Z"></path><path class="cls-2" d="m1059.54,1003.46c0,15.26-11.22,26.38-26.07,26.38s-26.07-11.12-26.07-26.38,11.22-26.38,26.07-26.38,26.07,11.02,26.07,26.38Zm-13.44,0c0-9.4-6.06-14.15-12.63-14.15s-12.63,4.75-12.63,14.15,6.06,14.15,12.63,14.15,12.63-4.75,12.63-14.15Z"></path><path class="cls-2" d="m1070.15,1028.32v-49.72h12.83v6.06c2.73-4.85,9.1-7.48,14.55-7.48,6.77,0,12.23,2.93,14.75,8.29,3.94-6.06,9.2-8.29,15.77-8.29,9.2,0,17.99,5.56,17.99,18.9v32.24h-13.04v-29.51c0-5.36-2.63-9.4-8.79-9.4-5.76,0-9.2,4.45-9.2,9.8v29.11h-13.34v-29.51c0-5.36-2.73-9.4-8.79-9.4s-9.3,4.35-9.3,9.8v29.11h-13.44Z"></path><path class="cls-2" d="m1159.69,1047.52v-68.92h13.04v6.06c2.22-3.84,7.78-7.17,15.26-7.17,14.55,0,22.94,11.12,22.94,25.87s-9.4,26.17-23.45,26.17c-6.87,0-11.93-2.73-14.35-6.06v24.05h-13.44Zm25.67-58.01c-6.87,0-12.43,5.15-12.43,13.95s5.56,14.05,12.43,14.05,12.33-5.15,12.33-14.05-5.46-13.95-12.33-13.95Z"></path><path class="cls-2" d="m1233.36,999.72l12.23-1.82c2.83-.4,3.74-1.82,3.74-3.54,0-3.54-2.73-6.47-8.39-6.47s-9.09,3.74-9.5,8.08l-11.92-2.53c.81-7.78,7.98-16.37,21.32-16.37,15.76,0,21.63,8.89,21.63,18.9v24.46c0,2.63.3,6.17.61,7.88h-12.33c-.3-1.31-.5-4.04-.5-5.96-2.53,3.94-7.28,7.38-14.65,7.38-10.61,0-17.08-7.18-17.08-14.96,0-8.89,6.57-13.85,14.86-15.06Zm15.97,8.49v-2.22l-11.22,1.72c-3.44.5-6.17,2.43-6.17,6.27,0,2.93,2.12,5.76,6.47,5.76,5.66,0,10.91-2.73,10.91-11.52Z"></path><path class="cls-2" d="m1289.44,1028.32h-13.44v-49.72h13.04v6.17c3.03-5.15,8.99-7.48,14.35-7.48,12.33,0,17.99,8.79,17.99,19.71v31.33h-13.44v-29c0-5.56-2.73-9.9-9.2-9.9-5.86,0-9.3,4.55-9.3,10.31v28.6Z"></path><path class="cls-2" d="m1337.04,1047.92l11.72-25.87-21.12-43.46h15.06l13.24,29.11,12.23-29.11h14.35l-31.23,69.33h-14.25Z"></path></svg>